<?xml version="1.0" encoding="UTF-8"?>
<svg width="19px" height="19px" viewBox="0 0 19 19" version="1.1" xmlns="http://www.w3.org/2000/svg" xmlns:xlink="http://www.w3.org/1999/xlink">
    <title>icon-check-3</title>
    <g id="Page-1" stroke="none" stroke-width="1" fill="none" fill-rule="evenodd">
        <g id="Desktop-HD" transform="translate(-736.000000, -809.000000)" fill-rule="nonzero">
            <g id="icon-check-3" transform="translate(736.000000, 808.000000)">
                <g id="1zwua-link" transform="translate(2.000000, 3.000000)" fill="#FFFFFF">
                    <path d="M0.71,6.81 C0.71,3.4383016 3.4433016,0.705 6.815,0.705 C10.1866984,0.705 12.92,3.4383016 12.92,6.81 C12.92,10.1816984 10.1866984,12.915 6.815,12.915 C3.4433016,12.915 0.71,10.1816984 0.71,6.81 Z" id="1zwua"></path>
                </g>
                <g id="1zwub-link" fill="#D92B3C">
                    <path d="M6.1,9.05 L8.23,11.18 L12.91,6.51 L14.57,8.16 L9.89,12.84 L8.23,14.5 L6.57,12.84 L4.44,10.7 L6.1,9.05 Z M16.22,17.22 C18.6289845,14.8226016 19.573753,11.3209359 18.6975742,8.03718256 C17.8213953,4.75342923 15.2577593,2.1878843 11.974659,1.30926151 C8.69155875,0.430638722 5.18919076,1.37280058 2.79,3.78 C-0.908456429,7.49080213 -0.904571243,13.4953131 2.7986842,17.201326 C6.50193964,20.9073389 12.506446,20.9156934 16.22,17.22 L16.22,17.22 Z" id="1zwub"></path>
                </g>
            </g>
        </g>
    </g>
</svg>