<?xml version="1.0" encoding="UTF-8"?>
<svg width="15px" height="15px" viewBox="0 0 15 15" version="1.1" xmlns="http://www.w3.org/2000/svg" xmlns:xlink="http://www.w3.org/1999/xlink">
    <!-- Generator: Sketch 53.2 (72643) - https://sketchapp.com -->
    <title>icon</title>
    <desc>Created with Sketch.</desc>
    <g id="Symbols" stroke="none" stroke-width="1" fill="none" fill-rule="evenodd">
        <g id="Table-row" transform="translate(-236.000000, -74.000000)" fill="#9B9B9B" fill-rule="nonzero">
            <g id="Group-6" transform="translate(236.000000, 42.000000)">
                <g id="Group-5" transform="translate(0.000000, 31.000000)">
                    <g id="icon" transform="translate(0.000000, 1.000000)">
                        <path d="M7.49968254,0 C3.35809524,0 0,3.35809524 0,7.49968254 C0,11.6412698 3.35809524,15 7.49968254,15 C11.6412698,15 15,11.6412698 15,7.49968254 C15,3.35809524 11.6412698,0 7.49968254,0 Z M9.06095238,11.6234921 C8.67492063,11.775873 8.36761905,11.8914286 8.13714286,11.9714286 C7.90730159,12.0514286 7.64,12.0914286 7.33587302,12.0914286 C6.86857143,12.0914286 6.5047619,11.9771429 6.24571429,11.7492063 C5.98666667,11.5212698 5.85777778,11.232381 5.85777778,10.8812698 C5.85777778,10.7447619 5.86730159,10.6050794 5.88634921,10.4628571 C5.90603175,10.3206349 5.93714286,10.1606349 5.97968254,9.98095238 L6.46285714,8.27428571 C6.50539683,8.11047619 6.54222222,7.95492063 6.57142857,7.81015873 C6.60063492,7.66412698 6.61460317,7.53015873 6.61460317,7.40825397 C6.61460317,7.19111111 6.56952381,7.03873016 6.48,6.95301587 C6.38920635,6.86730159 6.2184127,6.82539683 5.96380952,6.82539683 C5.83936508,6.82539683 5.71111111,6.84380952 5.57968254,6.88253968 C5.44952381,6.92253968 5.33650794,6.95873016 5.24380952,6.99428571 L5.37142857,6.46857143 C5.68761905,6.33968254 5.99047619,6.22920635 6.27936508,6.13777778 C6.56825397,6.04507937 6.84126984,5.99936508 7.0984127,5.99936508 C7.56253968,5.99936508 7.92063492,6.11238095 8.17269841,6.33587302 C8.42349206,6.56 8.54984127,6.85142857 8.54984127,7.20952381 C8.54984127,7.28380952 8.54095238,7.41460317 8.52380952,7.60126984 C8.50666667,7.78857143 8.47428571,7.95936508 8.42730159,8.11619048 L7.94666667,9.81777778 C7.90730159,9.95428571 7.87238095,10.1104762 7.84063492,10.2850794 C7.80952381,10.4596825 7.79428571,10.5930159 7.79428571,10.6825397 C7.79428571,10.9085714 7.84444444,11.0628571 7.94603175,11.1447619 C8.04634921,11.2266667 8.22222222,11.2679365 8.47111111,11.2679365 C8.58857143,11.2679365 8.72,11.2469841 8.86857143,11.2063492 C9.01587302,11.1657143 9.12253968,11.1295238 9.18984127,11.0984127 L9.06095238,11.6234921 Z M8.97587302,4.7168254 C8.75174603,4.92507937 8.48190476,5.02920635 8.16634921,5.02920635 C7.85142857,5.02920635 7.57968254,4.92507937 7.35365079,4.7168254 C7.12888889,4.50857143 7.0152381,4.2552381 7.0152381,3.95936508 C7.0152381,3.66412698 7.12952381,3.41015873 7.35365079,3.2 C7.57968254,2.98920635 7.85142857,2.88444444 8.16634921,2.88444444 C8.48190476,2.88444444 8.75238095,2.98920635 8.97587302,3.2 C9.2,3.41015873 9.31238095,3.66412698 9.31238095,3.95936508 C9.31238095,4.25587302 9.2,4.50857143 8.97587302,4.7168254 Z" id="Shape"></path>
                    </g>
                </g>
            </g>
        </g>
    </g>
</svg>